# xmcd
#
# Track frame offsets:
#	150
#	12793
#	28499
#	37514
#	48793
#	60478
#	73234
#	84583
#	91359
#	108743
#	126919
#	140533
#
# Disc length: 2015 seconds
#
# Revision: 0
# Processed by: cddbd v1.5.2PL0 Copyright (c) Steve Scherf et al.
# Submitted via: dBpowerAMP V4.0
#
DISCID=9f07dd0c
DTITLE=Various Artist - Country Gospel Disc 1
DYEAR=2010
DGENRE=Gospel
TTITLE0=Peace in the Valley - Boxcar Willie
TTITLE1=What A Friend we have in Jesus - Holly Dunn
TTITLE2=A Wonderful Time up there - Jack Greene
TTITLE3=Old Time Religion - Jeanne Pruett
TTITLE4=What would you do - Porter Wagoner
TTITLE5=Shelter of his arms - Oak Ridge Boys
TTITLE6=He will save your soul - Wilma Lee Cooper
TTITLE7=I saw the light - Boxcar Willie
TTITLE8=Oh Happy Day - Jack Greene
TTITLE9=Wings of an Angel - Holly Dunn
TTITLE10=Uncloudy Day - Jeanne Pruett
TTITLE11=Wings of a Dove - Ferlin Husky
EXTD=
EXTT0=
EXTT1=
EXTT2=
EXTT3=
EXTT4=
EXTT5=
EXTT6=
EXTT7=
EXTT8=
EXTT9=
EXTT10=
EXTT11=
PLAYORDER=
